<svg xmlns="http://www.w3.org/2000/svg" width="4000" height="260" viewBox="0 0 4000 260">
  <metadata><?xpacket begin="﻿" id="W5M0MpCehiHzreSzNTczkc9d"?>
<x:xmpmeta xmlns:x="adobe:ns:meta/" x:xmptk="Adobe XMP Core 5.6-c142 79.160924, 2017/07/13-01:06:39        ">
   <rdf:RDF xmlns:rdf="http://www.w3.org/1999/02/22-rdf-syntax-ns#">
      <rdf:Description rdf:about=""/>
   </rdf:RDF>
</x:xmpmeta>
                                                                                                    
                                                                                                    
                                                                                                    
                                                                                                    
                                                                                                    
                                                                                                    
                                                                                                    
                                                                                                    
                                                                                                    
                                                                                                    
                                                                                                    
                                                                                                    
                                                                                                    
                                                                                                    
                                                                                                    
                                                                                                    
                                                                                                    
                                                                                                    
                                                                                                    
                                                                                                    
                           
<?xpacket end="w"?></metadata>
<defs>
    <style>
      .cls-1 {
        fill: #fff;
        fill-rule: evenodd;
      }
    </style>
  </defs>
  <rect width="4000" height="260"/>
  <path id="KULAGIN-ART.COM" class="cls-1" d="M1112.11,193.774h10.8v-140h-10.8v140Zm117.2,0-77.4-59.6c-4.4-3.4-10.4-7.8-10.4-12.2,0-4.2,6.2-8.2,8.8-10.2l71.6-58h-15.6l-65.6,52.8c-4.6,3.6-10,9.6-10,15.2s5,12.2,12.2,17.8l70.2,54.2h16.2Zm8-140v96.4c0,9.8,1.6,21.6,10,31,12,13.2,32.4,14.2,43.6,14.2s31.6-1,43.6-14.2c8.4-9.4,10-21.2,10-31v-96.4h-10.8v92.6c0,8.6-.2,20.2-7.2,28.4-8.6,10.2-23.2,11-35.6,11s-27-.8-35.6-11c-7-8.2-7.2-19.8-7.2-28.4v-92.6h-10.8Zm233.8,140v-9.6h-80.2c-1.8,0-4.4-.2-6-1.6-1.6-1.6-1.6-3.6-1.6-5.2V53.776h-10.8v127.2c0,3,.4,7,3.8,9.8s9.4,3,11.4,3h83.4Zm-6,0h11.6l17-40.8h81.2l16.99,40.8h11.6l-53.59-126.8c-3.2-7.4-7.2-14.8-15.6-14.8s-12.4,7.2-15.6,14.8Zm63.4-123.6c1.2-2.8,3-8,5.8-8s4.6,5.2,5.8,8l30.6,73.2h-72.8Zm201.8,59.4h-10.8v45.8c0,2.2-.4,5-1.8,6.6-1.8,2.2-4.4,2.2-6.6,2.2h-51.6a34.679,34.679,0,0,1-32.2-20.2c-1.4-3-6.2-14-6.2-40.2,0-10.4.8-28.2,6.4-39.4,6.2-12.2,19.2-21,36.6-21h63v-9.6h-60c-8.6,0-21.2,1-32.6,7.8-22.6,13.4-25,39.4-25,63,0,19.8,1.6,44.6,19.6,59,7.6,6.2,18.4,10.2,30.6,10.2h54.2c3.6,0,9.6-.8,12.6-3.8,3.6-3.4,3.8-9.4,3.8-11.8v-48.6Zm34.8,64.2v-140h-10.8v140h10.8Zm146.39-140h-10.8v126.6c0,1.4,0,3.6-2.6,3.6-2.4,0-3.4-2-4.4-3.6l-73.6-118.8c-3-4.8-6.2-9.4-13.8-9.4-2.4,0-13.2.2-13.2,14.2v127.4h10.8V67.576c0-3.4,2.4-4,3-4,2.2,0,3.8,2,4.6,3.4l73.2,118.2c4.4,7.2,7.6,10.2,14,10.2,8.6,0,12.8-6.4,12.8-15.6v-126Zm24,91.6h60v-11.6h-60v11.6Zm68,48.4h11.6l17-40.8h81.2l17,40.8h11.6l-53.6-126.8c-3.2-7.4-7.2-14.8-15.6-14.8s-12.4,7.2-15.6,14.8Zm63.4-123.6c1.2-2.8,3-8,5.8-8s4.6,5.2,5.8,8l30.6,73.2h-72.8Zm87,123.6h10.8v-121a9.013,9.013,0,0,1,2.8-7.2c2.4-2.2,5-2.2,7.2-2.2h57.2c3,0,11.4.2,16.6,5,6.8,6.4,6.6,20.4,6.6,26.6,0,14.6-1.6,21-3.8,24.8a17.231,17.231,0,0,1-14.4,7.8h-43.4c-2.8,0-4.8,1.6-4.8,4.6v3.2c0,2.4.6,2.8,3.8,5.6l61.8,52.8h15.8l-65.6-55.6v-1h31c8.4,0,18.8-2.4,25-12.2,5.8-9.2,6.2-20.6,6.2-29.2,0-10.4-.8-21.8-6.2-30-6.8-10.4-18.4-12-26.6-12h-59c-5.2,0-10.4.6-15.2,4.8-5.6,5-5.8,10.6-5.8,16.6v118.6Zm191.6,0V63.376h58.6v-9.6h-128v9.6h58.6v130.4h10.8Zm76.6,0v-17.4h-12v17.4h12Zm133.79,0v-9.6h-54.2c-6.6,0-27-.6-38.8-17-9.2-12.8-9.2-30.2-9.2-41.2,0-15.6.8-34,10.4-46.4,11.6-15,30.2-16.2,40.6-16.2h49v-9.6h-53.6c-22.2,0-35.8,9.2-43,17-13.6,14.6-15,36-15,55,0,23.6,3.6,40.2,15.6,52.2,6.2,6.2,19,15.8,41.8,15.8h56.4Zm81.8-141.6c-15.6,0-36.8.8-51.2,15.2-15.8,15.8-16.6,40.2-16.6,56.4s0.8,40.6,16.6,56.4c14.4,14.4,35.6,15.2,51.2,15.2s36.8-.8,51.2-15.2c15.8-15.8,16.6-40.2,16.6-56.4s-0.8-40.6-16.6-56.4C2674.49,52.976,2653.29,52.176,2637.69,52.176Zm-56.2,71.6c0-16.2.4-35.6,12-48.6,12-13.4,30.8-13.4,44.2-13.4s32.2,0,44.2,13.4c11.6,13,12,32.4,12,48.6s-0.4,35.6-12,48.6c-12,13.4-30.8,13.4-44.2,13.4s-32.2,0-44.2-13.4C2581.89,159.374,2581.49,139.974,2581.49,123.775Zm148,70h10.8V65.376c0-2.8,1.8-3.6,2.8-3.6,1.2,0,3.2,2.4,3.8,4l47.6,114.4c3.6,8.6,7,15.2,14.2,15.2s10.6-6.6,14.2-15.2l47.6-114.4c0.6-1.6,2.6-4,3.8-4,1,0,2.8.8,2.8,3.6v128.4h10.8V65.376c0-7.6-5.2-13.2-13.2-13.2s-11.6,5.2-15.2,13.8l-47.4,114c-0.6,1.6-1.4,4.4-3.4,4.4s-2.8-2.8-3.4-4.4l-47.4-114c-3.6-8.6-7.2-13.8-15.2-13.8s-13.2,5.6-13.2,13.2v128.4Z"/>
</svg>
